<svg width="24" height="24" viewBox="0 0 24 24" fill="none" xmlns="http://www.w3.org/2000/svg">
<path d="M8.87071 14.3075L10.2013 15.5591C10.4716 15.8133 10.8874 15.8133 11.1369 15.5591C11.4071 15.3049 11.4071 14.9137 11.1369 14.679L10.2845 13.8772L11.1369 13.0754C11.4071 12.8211 11.4071 12.43 11.1369 12.1953C10.8666 11.9411 10.4508 11.9411 10.2013 12.1953L8.87071 13.447C8.62122 13.6621 8.62122 14.0532 8.87071 14.3075Z" fill="#FBFAFF"/>
<path d="M12.859 15.5591C13.1292 15.8134 13.545 15.8134 13.7945 15.5591L15.1251 14.3075C15.3954 14.0533 15.3954 13.6621 15.1251 13.4274L13.7945 12.1758C13.5243 11.9215 13.1084 11.9215 12.859 12.1758C12.5887 12.43 12.5887 12.8212 12.859 13.0558L13.7114 13.8577L12.859 14.6595C12.6095 14.9138 12.6095 15.3245 12.859 15.5591Z" fill="#FBFAFF"/>
<path d="M17.809 8.4014L13.8172 4.64647C13.6925 4.52913 13.5262 4.47046 13.339 4.47046H6.66529C6.29107 4.47046 6 4.74426 6 5.09628V18.9035C6 19.2555 6.29107 19.5293 6.66529 19.5293H17.3308C17.705 19.5293 17.9961 19.2555 17.9961 18.9035V8.85121C18.0169 8.6752 17.9545 8.51874 17.809 8.4014ZM14.0043 6.60216L15.7299 8.22539H14.0043V6.60216ZM11.3432 5.70254C12.0708 5.70254 12.6737 6.26969 12.6737 6.95419V8.85121C12.6737 9.20323 12.9648 9.47703 13.339 9.47703H16.6655V18.2581H7.33059V5.70254H11.3432Z" fill="#FBFAFF" stroke="#FBFAFF" stroke-width="0.3"/>
</svg>
