<svg width="38" height="31" viewBox="0 0 38 31" fill="none" xmlns="http://www.w3.org/2000/svg">
<path id="Vector" d="M30.8263 4.23089C28.5471 3.14849 26.1101 2.36186 23.5622 1.91394C23.2493 2.48816 22.8837 3.26049 22.6317 3.87487C19.9232 3.46144 17.2397 3.46144 14.5811 3.87487C14.3291 3.26049 13.9552 2.48816 13.6395 1.91394C11.0889 2.36186 8.64904 3.15138 6.36982 4.23662C1.77263 11.2878 0.526408 18.1639 1.14952 24.9423C4.19862 27.2535 7.15357 28.6575 10.0586 29.5762C10.7759 28.5742 11.4156 27.509 11.9667 26.3865C10.9171 25.9817 9.91187 25.4821 8.96199 24.9022C9.21399 24.7127 9.46048 24.5146 9.69863 24.3107C15.4922 27.0612 21.787 27.0612 27.5114 24.3107C27.7523 24.5146 27.9987 24.7127 28.248 24.9022C27.2953 25.485 26.2873 25.9845 25.2377 26.3894C25.7888 27.509 26.4258 28.5771 27.1458 29.579C30.0537 28.6603 33.0114 27.2564 36.0605 24.9423C36.7916 17.0844 34.8115 10.2715 30.8263 4.23089ZM12.756 20.7737C11.0169 20.7737 9.59061 19.1257 9.59061 17.1188C9.59061 15.112 10.9864 13.4612 12.756 13.4612C14.5257 13.4612 15.9519 15.1091 15.9215 17.1188C15.9242 19.1257 14.5257 20.7737 12.756 20.7737ZM24.454 20.7737C22.7148 20.7737 21.2885 19.1257 21.2885 17.1188C21.2885 15.112 22.6843 13.4612 24.454 13.4612C26.2236 13.4612 27.6498 15.1091 27.6194 17.1188C27.6194 19.1257 26.2236 20.7737 24.454 20.7737Z" stroke="#F03F77" stroke-width="1.71757"/>
</svg>
