<svg width="24" height="24" viewBox="0 0 24 24" fill="none" xmlns="http://www.w3.org/2000/svg">
<path fill-rule="evenodd" clip-rule="evenodd" d="M17.9062 4.86674C17.9062 4.64879 17.7164 4.47046 17.4844 4.47046H7.35938C6.19922 4.47046 5.25 5.3621 5.25 6.45188V17.5479C5.25 18.6376 6.19922 19.5293 7.35938 19.5293H18.3281C18.5602 19.5293 18.75 19.351 18.75 19.133V8.03702C18.75 7.81907 18.5602 7.64074 18.3281 7.64074H8.35938C8.1676 7.64074 7.99781 7.60959 7.85 7.55442C7.70219 7.49924 7.35901 7.32371 7.35938 6.72928C7.35974 6.13486 7.52311 5.78811 8.35938 5.78811H16.6V6.35281C16.6 7.09634 17.9062 7.09634 17.9062 6.35281V4.86674ZM6.85 8.95046V17.5479C6.85 17.8032 7.07993 18.0234 7.35938 18.0234H17.15V9.14662H7.35938C7.18516 9.14662 7.01499 8.97624 6.85 8.95046Z" fill="#FBFAFF"/>
</svg>
