<svg width="25" height="25" viewBox="0 0 25 25" fill="none" xmlns="http://www.w3.org/2000/svg">
<g clip-path="url(#clip0_7383_726)">
<path d="M10.2231 24.2361C4.43812 23.2008 0.0537109 18.2075 0.0537109 12.1789C0.0537109 5.48051 5.53423 0 12.2326 0C18.931 0 24.4116 5.48051 24.4116 12.1789C24.4116 18.2075 20.0271 23.2008 14.2422 24.2361L13.5723 23.688H10.893L10.2231 24.2361Z" fill="white"/>
<path d="M16.9826 15.589L17.5307 12.1789H14.3033V9.80402C14.3033 8.82971 14.6686 8.09897 16.1301 8.09897H17.7134V4.99335C16.8609 4.87156 15.8865 4.74977 15.034 4.74977C12.2329 4.74977 10.2842 6.45482 10.2842 9.49955V12.1789H7.2395V15.589H10.2842V24.1751C10.9541 24.2969 11.6239 24.3578 12.2938 24.3578C12.9636 24.3578 13.6334 24.2969 14.3033 24.1751V15.589H16.9826Z" fill="#08081E"/>
</g>
<defs>
<clipPath id="clip0_7383_726">
<rect width="24.3578" height="24.3578" fill="white" transform="translate(0.0537109)"/>
</clipPath>
</defs>
</svg>
