<svg width="24" height="24" viewBox="0 0 24 24" fill="none" xmlns="http://www.w3.org/2000/svg">
<g id="Frame">
<path id="Vector" fill-rule="evenodd" clip-rule="evenodd" d="M12.0102 4.03016C10.1086 4.02818 8.26848 4.71908 6.81958 5.97906C5.37069 7.23904 4.40772 8.98573 4.10325 10.9061C3.79879 12.8265 4.17273 14.795 5.15805 16.459C6.14338 18.1229 7.67568 19.3735 9.48038 19.9865C9.87827 20.0619 10.0256 19.8056 10.0256 19.5895C10.0256 19.3734 10.0256 18.8809 10.0256 18.1974C7.80039 18.7 7.32882 17.1018 7.32882 17.1018C7.18054 16.6065 6.86554 16.181 6.43971 15.9007C5.71761 15.3981 6.49865 15.3981 6.49865 15.3981C6.75178 15.4347 6.99345 15.5297 7.20536 15.676C7.41728 15.8223 7.59388 16.016 7.7218 16.2424C7.83049 16.4441 7.97702 16.6218 8.15299 16.7653C8.32896 16.9088 8.53091 17.0154 8.74724 17.0789C8.96358 17.1424 9.19004 17.1616 9.41363 17.1354C9.63722 17.1091 9.85354 17.0379 10.0502 16.9259C10.081 16.5125 10.2552 16.1239 10.5414 15.8303C8.76319 15.6243 6.89654 14.9207 6.89654 11.7847C6.88433 10.9721 7.17805 10.1857 7.71688 9.58851C7.47641 8.88199 7.50447 8.10879 7.79548 7.42246C7.79548 7.42246 8.46845 7.20133 9.99615 8.26174C11.308 7.89324 12.6927 7.89324 14.0045 8.26174C15.5322 7.20133 16.2003 7.42246 16.2003 7.42246C16.4943 8.10781 16.5242 8.88159 16.2838 9.58851C16.8226 10.1857 17.1164 10.9721 17.1041 11.7847C17.1041 14.9308 15.2326 15.6193 13.4494 15.8052C13.6406 16.0019 13.7883 16.2383 13.8824 16.4984C13.9764 16.7585 14.0148 17.0363 13.9947 17.3129C13.9947 18.4085 13.9947 19.293 13.9947 19.5594C13.9947 19.8257 14.1372 20.0318 14.5449 19.9564C16.3439 19.3375 17.8695 18.085 18.8497 16.4222C19.8298 14.7593 20.2008 12.7943 19.8963 10.8777C19.5918 8.96103 18.6318 7.21735 17.1874 5.95765C15.743 4.69795 13.9081 4.00415 12.0102 4V4.03016Z" fill="white"/>
</g>
</svg>
