<svg width="25" height="25" viewBox="0 0 25 25" fill="none" xmlns="http://www.w3.org/2000/svg">
<g clip-path="url(#clip0_7383_734)">
<path d="M12.675 0C5.81365 0 0.496094 5.02595 0.496094 11.8138C0.496094 15.3646 1.95168 18.4326 4.3213 20.5522C4.51979 20.7311 4.63987 20.9786 4.64967 21.2457L4.71583 23.412C4.73789 24.103 5.45098 24.5514 6.0832 24.2745L8.49938 23.2086C8.70523 23.1179 8.93312 23.1007 9.14876 23.1596C10.2588 23.4659 11.4424 23.6276 12.675 23.6276C19.5364 23.6276 24.8539 18.6017 24.8539 11.8138C24.8539 5.02595 19.5364 0 12.675 0Z" fill="white"/>
<path d="M5.36295 15.269L8.94066 9.59366C9.50917 8.69188 10.7295 8.46643 11.5823 9.10601L14.4273 11.2404C14.6895 11.4364 15.0473 11.434 15.307 11.2379L19.1494 8.32185C19.6615 7.93223 20.333 8.5473 19.9875 9.09131L16.4122 14.7642C15.8437 15.666 14.6233 15.8914 13.7706 15.2518L10.9256 13.1175C10.6634 12.9214 10.3056 12.9239 10.0458 13.1199L6.20101 16.0384C5.68886 16.4281 5.01743 15.813 5.36295 15.269Z" fill="#09091E"/>
</g>
<defs>
<clipPath id="clip0_7383_734">
<rect width="24.3578" height="24.3578" fill="white" transform="translate(0.496094)"/>
</clipPath>
</defs>
</svg>
