<svg width="65" height="64" viewBox="0 0 65 64" fill="none" xmlns="http://www.w3.org/2000/svg">
<g clip-path="url(#clip0_7168_32809)">
<mask id="mask0_7168_32809" style="mask-type:luminance" maskUnits="userSpaceOnUse" x="0" y="0" width="64" height="64">
<path d="M63.2103 0.532547H0.568481V63.1744H63.2103V0.532547Z" fill="white"/>
</mask>
<g mask="url(#mask0_7168_32809)">
<path d="M44.4194 0.532547H19.3594C8.98149 0.532547 0.568481 8.94556 0.568481 19.3235V44.3835C0.568481 54.7613 8.98149 63.1744 19.3594 63.1744H44.4194C54.7973 63.1744 63.2103 54.7613 63.2103 44.3835V19.3235C63.2103 8.94556 54.7973 0.532547 44.4194 0.532547Z" fill="url(#paint0_linear_7168_32809)"/>
<path d="M42.6745 14.1503H24.0677L14.1862 24.2554V42.6803C14.1843 43.5818 14.3617 44.4749 14.7084 45.3084C15.0551 46.1421 15.5643 46.8998 16.2066 47.5383C16.8491 48.1768 17.6124 48.6838 18.4528 49.0301C19.293 49.3764 20.1941 49.5554 21.1041 49.5566H39.7061V49.5085L49.5924 39.4515V21.0073C49.5886 19.1908 48.8586 17.4497 47.5623 16.1647C46.2659 14.8797 44.5085 14.1554 42.6745 14.1503ZM24.0677 18.3848V24.2554H18.2865L24.0677 18.3848ZM39.711 45.3317V42.3386H36.7961V46.6695H21.1041C20.0416 46.6681 19.0229 46.2495 18.2715 45.5053C17.5202 44.7611 17.0975 43.752 17.0962 42.6996V27.1425H32.7832C33.8458 27.1439 34.8645 27.5625 35.6158 28.3067C36.3672 29.0509 36.7899 30.06 36.7912 31.1124V36.5644H30.9858C29.9234 36.5618 28.9055 36.1428 28.1545 35.3989C27.4033 34.6549 26.9802 33.6467 26.9778 32.5946V30.0442H24.0629V32.5946C24.0667 34.412 24.7973 36.1538 26.0948 37.4389C27.3922 38.7241 29.1508 39.4477 30.9858 39.4515H45.4775L39.711 45.3317ZM46.6776 36.5644H39.7061V31.1124C39.7048 29.2943 38.9751 27.5509 37.677 26.2651C36.379 24.9795 34.6189 24.2566 32.7832 24.2554H26.9778V17.0374H42.6745C43.7371 17.0388 44.7557 17.4574 45.5071 18.2016C46.2584 18.9458 46.6811 19.9549 46.6824 21.0073L46.6776 36.5644Z" fill="white"/>
</g>
</g>
<defs>
<linearGradient id="paint0_linear_7168_32809" x1="-2.4871" y1="62.7116" x2="61.3487" y2="5.41307" gradientUnits="userSpaceOnUse">
<stop stop-color="#2B4A9F"/>
<stop offset="0.11" stop-color="#2C50A0"/>
<stop offset="0.26" stop-color="#3062A2"/>
<stop offset="0.43" stop-color="#377FA5"/>
<stop offset="0.62" stop-color="#40A8AA"/>
<stop offset="0.82" stop-color="#4CDBB1"/>
<stop offset="0.89" stop-color="#50EEB3"/>
</linearGradient>
<clipPath id="clip0_7168_32809">
<rect width="64" height="64" fill="white" transform="translate(0.125732)"/>
</clipPath>
</defs>
</svg>
