<svg width="65" height="64" viewBox="0 0 65 64" fill="none" xmlns="http://www.w3.org/2000/svg">
<mask id="mask0_7168_32830" style="mask-type:luminance" maskUnits="userSpaceOnUse" x="1" y="0" width="63" height="64">
<path d="M63.761 0.53244H1.11914V63.1743H63.761V0.53244Z" fill="white"/>
</mask>
<g mask="url(#mask0_7168_32830)">
<path d="M44.9701 0.53244H19.9101C9.53215 0.53244 1.11914 8.94545 1.11914 19.3234V44.3834C1.11914 54.7612 9.53215 63.1743 19.9101 63.1743H44.9701C55.3479 63.1743 63.761 54.7612 63.761 44.3834V19.3234C63.761 8.94545 55.3479 0.53244 44.9701 0.53244Z" fill="url(#paint0_linear_7168_32830)"/>
<path d="M32.7638 26.5332C32.7624 25.5577 32.3445 24.6226 31.6018 23.9328C30.859 23.2431 29.8519 22.855 28.8014 22.8538H24.2619C23.2115 22.855 22.2044 23.2431 21.4616 23.9328C20.7187 24.6226 20.3009 25.5577 20.2994 26.5332V39.4517C20.3009 40.4266 20.7189 41.3613 21.4619 42.0502C22.2048 42.7393 23.2119 43.1262 24.2619 43.1262H38.1742C39.2242 43.1262 40.2313 42.7393 40.9741 42.0502C41.7171 41.3613 42.1352 40.4266 42.1365 39.4517V35.2317C42.1352 34.2566 41.7171 33.3219 40.9741 32.633C40.2313 31.944 39.2242 31.557 38.1742 31.557H32.7638V26.5332ZM23.3911 26.5332C23.3911 26.3187 23.4829 26.113 23.6461 25.9613C23.8094 25.8098 24.031 25.7245 24.2619 25.7245H28.8014C29.0324 25.7245 29.2538 25.8098 29.4172 25.9613C29.5805 26.113 29.6723 26.3187 29.6723 26.5332V31.557H23.3911V26.5332ZM33.3204 34.4278H38.1742C38.4042 34.4278 38.6249 34.5124 38.7881 34.663C38.9512 34.8135 39.0437 35.018 39.045 35.2317V39.4517C39.0437 39.6652 38.9512 39.8697 38.7881 40.0204C38.6249 40.171 38.4042 40.2554 38.1742 40.2554H32.7638V37.2794H29.6723V40.2554H24.2619C24.0318 40.2554 23.8111 40.171 23.6479 40.0204C23.4848 39.8697 23.3924 39.6652 23.3911 39.4517V34.4278H33.3204Z" fill="white"/>
<path d="M50.3974 14.1503H44.4049C43.5471 14.1516 42.7249 14.4686 42.1182 15.0318C41.5117 15.5951 41.1704 16.3586 41.1691 17.1551V22.7196C41.1704 23.5161 41.5117 24.2797 42.1182 24.8429C42.7249 25.4061 43.5471 25.7232 44.4049 25.7244H50.3974C51.2552 25.7232 52.0775 25.4061 52.684 24.8429C53.2905 24.2797 53.6319 23.5161 53.6333 22.7196V17.1551C53.6319 16.3586 53.2905 15.5951 52.684 15.0318C52.0775 14.4686 51.2552 14.1516 50.3974 14.1503ZM50.5418 22.7196C50.5404 22.7548 50.5249 22.7881 50.4981 22.813C50.4712 22.838 50.4353 22.8524 50.3974 22.8536H44.4049C44.3671 22.8524 44.3311 22.838 44.3043 22.813C44.2775 22.7881 44.2619 22.7548 44.2606 22.7196V17.1551C44.2619 17.12 44.2775 17.0866 44.3043 17.0617C44.3311 17.0368 44.3671 17.0223 44.4049 17.0211H50.3974C50.4353 17.0223 50.4712 17.0368 50.4981 17.0617C50.5249 17.0866 50.5404 17.12 50.5418 17.1551V22.7196Z" fill="white"/>
<path d="M45.9655 44.2648C45.9642 44.9064 45.6891 45.5215 45.2003 45.9753C44.7117 46.429 44.0494 46.6845 43.3583 46.6857H19.079C18.3869 46.6857 17.7232 46.4308 17.2335 45.9769C16.7436 45.523 16.4679 44.9072 16.4665 44.2648V21.7148C16.4679 21.0721 16.7436 20.4563 17.2335 20.0025C17.7232 19.5486 18.3869 19.2937 19.079 19.2937H37.1133V16.4229H19.079C17.5674 16.4242 16.1182 16.982 15.0489 17.974C13.9796 18.966 13.3776 20.3112 13.3749 21.7148V44.2648C13.3776 45.6682 13.9796 47.0135 15.0489 48.0054C16.1182 48.9975 17.5674 49.5553 19.079 49.5565H43.3583C44.8693 49.5553 46.3181 48.9973 47.3865 48.0052C48.455 47.0131 49.0558 45.6678 49.0572 44.2648V29.0113H45.9655V44.2648Z" fill="white"/>
</g>
<defs>
<linearGradient id="paint0_linear_7168_32830" x1="-3.03559" y1="65.5094" x2="65.6754" y2="0.322099" gradientUnits="userSpaceOnUse">
<stop offset="0.11" stop-color="#930586"/>
<stop offset="0.35" stop-color="#B8299C"/>
<stop offset="0.72" stop-color="#EA5ABB"/>
<stop offset="0.9" stop-color="#FE6DC7"/>
</linearGradient>
</defs>
</svg>
