<svg width="64" height="64" viewBox="0 0 64 64" fill="none" xmlns="http://www.w3.org/2000/svg">
<g clip-path="url(#clip0_7168_32777)">
<mask id="mask0_7168_32777" style="mask-type:luminance" maskUnits="userSpaceOnUse" x="0" y="0" width="64" height="64">
<path d="M64 0H0V64H64V0Z" fill="white"/>
</mask>
<g mask="url(#mask0_7168_32777)">
<path d="M44.8017 0H19.1983C8.59541 0 0 8.59541 0 19.1983V44.8017C0 55.4045 8.59541 64 19.1983 64H44.8017C55.4045 64 64 55.4045 64 44.8017V19.1983C64 8.59541 55.4045 0 44.8017 0Z" fill="url(#paint0_linear_7168_32777)"/>
<path d="M37.3486 23.4142L32.7363 20.7545C32.5092 20.6233 32.2515 20.5543 31.9891 20.5543C31.7269 20.5543 31.4692 20.6233 31.242 20.7545L26.6247 23.4142C26.3975 23.5456 26.2087 23.7344 26.0775 23.9617C25.9464 24.189 25.8774 24.4468 25.8776 24.7094V29.4412L22.0921 31.6278C21.8648 31.759 21.6761 31.9478 21.5449 32.1751C21.4138 32.4025 21.3448 32.6604 21.345 32.9228V38.2475C21.3448 38.5099 21.4138 38.7678 21.5449 38.9952C21.6761 39.2225 21.8648 39.4113 22.0921 39.5425L26.7044 42.2073C26.9316 42.3381 27.1893 42.4068 27.4515 42.4065C27.7138 42.4068 27.9715 42.3381 28.1987 42.2073L32.2432 39.8713L36.0486 42.0629C36.2753 42.1954 36.5331 42.2658 36.7957 42.2671C37.0584 42.2658 37.3162 42.1954 37.543 42.0629L42.1553 39.403C42.3825 39.2718 42.5713 39.083 42.7025 38.8556C42.8335 38.6283 42.9025 38.3705 42.9024 38.1079V32.7784C42.9017 32.5168 42.8323 32.26 42.7012 32.0335C42.57 31.8071 42.3818 31.6192 42.1553 31.4884L38.0808 29.1424V24.7094C38.0825 24.4484 38.0159 24.1914 37.8873 23.9642C37.7589 23.737 37.5731 23.5474 37.3486 23.4142ZM28.8811 25.571L31.9992 23.7729L35.1172 25.571V29.1723L31.9992 30.9753L28.8811 29.1723V25.571ZM30.5895 37.3857L27.4666 39.1838L24.3485 37.3857V33.7846L27.4666 31.9815L30.5895 33.7846V37.3857ZM39.9288 37.2463L36.8107 39.0444L33.6876 37.2463V33.645L36.8107 31.842L39.9288 33.645V37.2463Z" fill="#F4F4F5"/>
<path d="M50.334 21.1977L43.6049 17.3126L42.1106 19.9026L48.0876 23.3545V30.263H51.0763V22.4927C51.0769 22.2308 51.0087 21.9732 50.8785 21.746C50.7482 21.5186 50.5604 21.3296 50.334 21.1977Z" fill="#F4F4F5"/>
<path d="M48.0925 41.3656L42.1154 44.8223L43.6096 47.4075L50.3389 43.5224C50.5661 43.3911 50.7549 43.2023 50.886 42.9749C51.0172 42.7476 51.0862 42.4898 51.0861 42.2272V34.4571H48.0974L48.0925 41.3656Z" fill="#F4F4F5"/>
<path d="M32.4971 50.3708L26.5199 46.9141L25.0256 49.5042L31.7548 53.3893C31.982 53.5205 32.2397 53.5895 32.5019 53.5895C32.7643 53.5895 33.022 53.5205 33.2492 53.3893L39.9784 49.5042L38.4841 46.9141L32.4971 50.3708Z" fill="#F4F4F5"/>
<path d="M16.9019 34.4571H13.9133V42.2272C13.9132 42.4898 13.9822 42.7476 14.1133 42.9749C14.2445 43.2023 14.4331 43.3911 14.6605 43.5224L21.3896 47.4075L22.8839 44.8223L16.9069 41.3656L16.9019 34.4571Z" fill="#F4F4F5"/>
<path d="M16.9017 23.3545L22.8788 19.9026L21.3845 17.3126L14.6702 21.1977C14.443 21.329 14.2542 21.5177 14.123 21.745C13.992 21.9725 13.923 22.2303 13.9231 22.4927V30.263H16.9118L16.9017 23.3545Z" fill="#F4F4F5"/>
<path d="M32.4971 14.3491L38.4741 17.8058L39.9684 15.2157L33.2392 11.3306C33.012 11.1995 32.7543 11.1304 32.4921 11.1304C32.2298 11.1304 31.9721 11.1995 31.7449 11.3306L25.0157 15.2157L26.51 17.8058L32.4971 14.3491Z" fill="#F4F4F5"/>
</g>
</g>
<defs>
<linearGradient id="paint0_linear_7168_32777" x1="3.4206e-07" y1="62.6087" x2="62.0979" y2="4.98631" gradientUnits="userSpaceOnUse">
<stop stop-color="#2E60E2"/>
<stop offset="1" stop-color="#27C1CF"/>
</linearGradient>
<clipPath id="clip0_7168_32777">
<rect width="64" height="64" fill="white"/>
</clipPath>
</defs>
</svg>
