<svg width="64" height="64" viewBox="0 0 64 64" fill="none" xmlns="http://www.w3.org/2000/svg">
<g clip-path="url(#clip0_7168_32794)">
<path d="M58.8287 48.2481L56.4482 47.0032L56.4424 46.9917C56.4078 46.9744 56.373 46.9628 56.3442 46.9456L56.3095 46.9283C52.0744 44.9112 47.7757 43.3953 43.4365 42.3637V17.2356C43.4365 16.3596 42.749 15.6622 41.8882 15.6622H36.3588H22.417H16.8877C16.0383 15.6622 15.3392 16.3596 15.3392 17.2356V42.4848C11.0232 43.5509 6.73029 45.0841 2.50672 47.1012L0.825383 48.1156L0.571167 52.9798C2.08495 51.3431 3.66806 50.4669 3.66806 50.4669C7.22719 48.7149 11.5432 47.0032 15.3449 46.0696V60.3453H22.4112V29.4251C22.4112 25.5348 25.6122 22.3131 29.4254 22.3131C33.2445 22.3131 36.3473 25.4598 36.3473 29.3443C36.3473 29.3732 36.3357 29.4019 36.3357 29.4251H36.3473V41.1246C33.0944 40.7499 29.8299 40.6289 26.5654 40.8018L23.8788 44.6921C28.0619 44.3406 32.1353 44.3693 36.1565 44.8247C36.197 44.8247 36.2202 44.8247 36.2605 44.8362C36.2894 44.8362 36.3184 44.8362 36.353 44.8477C37.0522 44.9284 39.6059 45.2512 41.9402 45.8274L36.353 47.7237V60.3338H43.4135V46.1214C47.221 47.0782 50.9824 48.4787 54.761 50.3113L56.5579 51.0606C56.5579 51.0606 58.5975 52.0692 59.077 53.1008L58.8287 48.2481Z" fill="url(#paint0_linear_7168_32794)"/>
<path fill-rule="evenodd" clip-rule="evenodd" d="M10.3055 5.67865C6.58491 5.67865 3.42833 8.87001 3.42833 12.9868V50.9418C3.42833 55.0587 6.58491 58.2501 10.3055 58.2501H49.1226C52.8364 58.2501 55.995 55.0593 55.9998 50.9398V37.7491L59.4284 37.7632V50.9438C59.4216 56.7914 54.8883 61.6787 49.1226 61.6787H10.3055C4.53512 61.6787 -0.000244141 56.7922 -0.000244141 50.9418V12.9868C-0.000244141 7.13656 4.53512 2.25008 10.3055 2.25008H49.1226C54.893 2.25008 59.4284 7.13656 59.4284 12.9868V34.2501H55.9998V30.7806C57.1295 30.2416 57.9099 29.0908 57.9099 27.7582C57.9099 26.4256 57.1295 25.2748 55.9998 24.7357V12.9868C55.9998 8.87001 52.8431 5.67865 49.1226 5.67865H10.3055Z" fill="url(#paint1_linear_7168_32794)"/>
<path fill-rule="evenodd" clip-rule="evenodd" d="M54.6459 34.4092H62.96C63.5379 34.4092 64 33.9482 64 33.3834V22.1449C64 21.5685 63.532 21.1075 62.96 21.1075H54.6459C50.9654 21.1075 47.9783 24.0814 47.9783 27.7584C47.9783 31.4296 50.9596 34.4092 54.6459 34.4092ZM57.9101 27.7584C57.9101 29.6077 56.4073 31.1069 54.5533 31.1069C52.6994 31.1069 51.1964 29.6077 51.1964 27.7584C51.1964 25.909 52.6994 24.4099 54.5533 24.4099C56.4073 24.4099 57.9101 25.909 57.9101 27.7584Z" fill="url(#paint2_linear_7168_32794)"/>
</g>
<defs>
<linearGradient id="paint0_linear_7168_32794" x1="0.562732" y1="38.0067" x2="59.0847" y2="38.0067" gradientUnits="userSpaceOnUse">
<stop stop-color="#8D29C1"/>
<stop offset="0.0858" stop-color="#8D29C1"/>
<stop offset="0.2383" stop-color="#942BBB"/>
<stop offset="0.4667" stop-color="#A92FAC"/>
<stop offset="0.7413" stop-color="#CA3793"/>
<stop offset="1" stop-color="#F03F77"/>
</linearGradient>
<linearGradient id="paint1_linear_7168_32794" x1="-0.0386685" y1="32.0073" x2="59.4636" y2="31.9304" gradientUnits="userSpaceOnUse">
<stop stop-color="#8D29C1"/>
<stop offset="0.0858" stop-color="#8D29C1"/>
<stop offset="0.2383" stop-color="#942BBB"/>
<stop offset="0.4667" stop-color="#A92FAC"/>
<stop offset="0.7413" stop-color="#CA3793"/>
<stop offset="1" stop-color="#F03F77"/>
</linearGradient>
<linearGradient id="paint2_linear_7168_32794" x1="56.5383" y1="10.9859" x2="55.9655" y2="31.4644" gradientUnits="userSpaceOnUse">
<stop stop-color="#8D29C1"/>
<stop offset="0.0858" stop-color="#8D29C1"/>
<stop offset="0.2383" stop-color="#942BBB"/>
<stop offset="0.4667" stop-color="#A92FAC"/>
<stop offset="0.7413" stop-color="#CA3793"/>
<stop offset="1" stop-color="#F03F77"/>
</linearGradient>
<clipPath id="clip0_7168_32794">
<rect width="64" height="64" fill="white"/>
</clipPath>
</defs>
</svg>
