<svg width="64" height="64" viewBox="0 0 64 64" fill="none" xmlns="http://www.w3.org/2000/svg">
<g clip-path="url(#clip0_7168_32917)">
<path d="M58.8287 48.248L56.4482 47.0032L56.4425 46.9917C56.4078 46.9744 56.3731 46.9628 56.3442 46.9455L56.3096 46.9283C52.0745 44.9112 47.7757 43.3953 43.4366 42.3637V17.2355C43.4366 16.3595 42.7491 15.6622 41.8882 15.6622H36.3588H22.4171H16.8877C16.0383 15.6622 15.3392 16.3595 15.3392 17.2355V42.4848C11.0232 43.5509 6.73035 45.084 2.50679 47.1012L0.825444 48.1155L0.571228 52.9798C2.08501 51.343 3.66812 50.4669 3.66812 50.4669C7.22725 48.7149 11.5432 47.0032 15.345 46.0695V60.3453H22.4112V29.425C22.4112 25.5348 25.6122 22.313 29.4255 22.313C33.2446 22.313 36.3473 25.4598 36.3473 29.3443C36.3473 29.3732 36.3357 29.4019 36.3357 29.425H36.3473V41.1245C33.0945 40.7499 29.83 40.6289 26.5655 40.8018L23.8788 44.692C28.062 44.3405 32.1353 44.3693 36.1566 44.8247C36.1971 44.8247 36.2202 44.8247 36.2606 44.8362C36.2895 44.8362 36.3185 44.8362 36.3531 44.8477C37.0522 44.9284 39.606 45.2512 41.9402 45.8274L36.3531 47.7237V60.3338H43.4136V46.1214C47.2211 47.0782 50.9825 48.4787 54.7611 50.3113L56.558 51.0605C56.558 51.0605 58.5976 52.0692 59.0771 53.1008L58.8287 48.248Z" fill="url(#paint0_linear_7168_32917)"/>
<path fill-rule="evenodd" clip-rule="evenodd" d="M10.3055 5.67864C6.58491 5.67864 3.42833 8.87 3.42833 12.9868V50.9418C3.42833 55.0587 6.58491 58.2501 10.3055 58.2501H49.1226C52.8364 58.2501 55.995 55.0593 55.9998 50.9398V37.7491L59.4284 37.7632V50.9438C59.4216 56.7914 54.8883 61.6787 49.1226 61.6787H10.3055C4.53512 61.6787 -0.000244141 56.7922 -0.000244141 50.9418V12.9868C-0.000244141 7.13655 4.53512 2.25006 10.3055 2.25006H49.1226C54.893 2.25006 59.4284 7.13655 59.4284 12.9868V34.2501H55.9998V30.7806C57.1295 30.2416 57.9099 29.0908 57.9099 27.7582C57.9099 26.4256 57.1295 25.2748 55.9998 24.7357V12.9868C55.9998 8.87 52.8431 5.67864 49.1226 5.67864H10.3055Z" fill="url(#paint1_linear_7168_32917)"/>
<path fill-rule="evenodd" clip-rule="evenodd" d="M54.6461 34.4092H62.9603C63.5381 34.4092 64.0003 33.9482 64.0003 33.3833V22.1448C64.0003 21.5684 63.5323 21.1074 62.9603 21.1074H54.6461C50.9656 21.1074 47.9785 24.0813 47.9785 27.7583C47.9785 31.4295 50.9599 34.4092 54.6461 34.4092ZM57.9104 27.7583C57.9104 29.6077 56.4075 31.1068 54.5535 31.1068C52.6996 31.1068 51.1966 29.6077 51.1966 27.7583C51.1966 25.9089 52.6996 24.4098 54.5535 24.4098C56.4075 24.4098 57.9104 25.9089 57.9104 27.7583Z" fill="url(#paint2_linear_7168_32917)"/>
</g>
<defs>
<linearGradient id="paint0_linear_7168_32917" x1="0.562793" y1="38.0067" x2="59.0847" y2="38.0067" gradientUnits="userSpaceOnUse">
<stop stop-color="#8D29C1"/>
<stop offset="0.0858" stop-color="#8D29C1"/>
<stop offset="0.2383" stop-color="#942BBB"/>
<stop offset="0.4667" stop-color="#A92FAC"/>
<stop offset="0.7413" stop-color="#CA3793"/>
<stop offset="1" stop-color="#F03F77"/>
</linearGradient>
<linearGradient id="paint1_linear_7168_32917" x1="-0.0386685" y1="32.0073" x2="59.4636" y2="31.9304" gradientUnits="userSpaceOnUse">
<stop stop-color="#8D29C1"/>
<stop offset="0.0858" stop-color="#8D29C1"/>
<stop offset="0.2383" stop-color="#942BBB"/>
<stop offset="0.4667" stop-color="#A92FAC"/>
<stop offset="0.7413" stop-color="#CA3793"/>
<stop offset="1" stop-color="#F03F77"/>
</linearGradient>
<linearGradient id="paint2_linear_7168_32917" x1="56.5385" y1="10.9858" x2="55.9658" y2="31.4643" gradientUnits="userSpaceOnUse">
<stop stop-color="#8D29C1"/>
<stop offset="0.0858" stop-color="#8D29C1"/>
<stop offset="0.2383" stop-color="#942BBB"/>
<stop offset="0.4667" stop-color="#A92FAC"/>
<stop offset="0.7413" stop-color="#CA3793"/>
<stop offset="1" stop-color="#F03F77"/>
</linearGradient>
<clipPath id="clip0_7168_32917">
<rect width="64" height="64" fill="white"/>
</clipPath>
</defs>
</svg>
