<svg width="39" height="33" viewBox="0 0 39 33" fill="none" xmlns="http://www.w3.org/2000/svg">
<path id="Path-3" fill-rule="evenodd" clip-rule="evenodd" d="M3.53858 14.6272C13.4513 10.3084 20.0613 7.46116 23.3686 6.08553C32.8117 2.15781 34.7739 1.47553 36.0528 1.453C36.3341 1.44804 36.9631 1.51776 37.3705 1.84833C37.7145 2.12747 37.8091 2.50454 37.8544 2.76919C37.8997 3.03384 37.9561 3.63672 37.9113 4.10779C37.3995 9.48453 35.1853 22.5325 34.0588 28.5545C33.5822 31.1026 32.6436 31.957 31.735 32.0406C29.7604 32.2223 28.2609 30.7357 26.3484 29.482C23.3557 27.5202 21.6649 26.299 18.76 24.3846C15.4028 22.1723 17.5791 20.9564 19.4924 18.9692C19.9931 18.4491 28.6934 10.5355 28.8618 9.81761C28.8828 9.72783 28.9024 9.39316 28.7036 9.21644C28.5047 9.03972 28.2113 9.10015 27.9995 9.14821C27.6994 9.21634 22.9184 12.3764 13.6567 18.6283C12.2997 19.5601 11.0705 20.0142 9.96918 19.9904C8.75508 19.9642 6.41965 19.3039 4.68349 18.7396C2.55403 18.0474 0.861571 17.6814 1.00895 16.5058C1.08571 15.8935 1.92892 15.2673 3.53858 14.6272Z" stroke="#F03F77" stroke-width="1.71757"/>
</svg>
