<svg width="27" height="22" viewBox="0 0 27 22" fill="none" xmlns="http://www.w3.org/2000/svg">
<path fill-rule="evenodd" clip-rule="evenodd" d="M1.79105 9.67817C8.78476 6.63113 13.4483 4.62233 15.7818 3.65177C22.4442 0.880648 23.8285 0.399274 24.7309 0.383379C24.9293 0.379883 25.3731 0.429067 25.6605 0.6623C25.9032 0.859238 25.97 1.12527 26.0019 1.31199C26.0339 1.49871 26.0737 1.92406 26.0421 2.25642C25.681 6.04988 24.1188 15.2556 23.3241 19.5043C22.9878 21.3021 22.3256 21.9049 21.6845 21.9639C20.2914 22.0921 19.2334 21.0432 17.8841 20.1587C15.7726 18.7746 14.5798 17.913 12.5302 16.5624C10.1616 15.0015 11.6971 14.1436 13.0469 12.7416C13.4002 12.3747 19.5386 6.79137 19.6574 6.28488C19.6722 6.22154 19.686 5.98541 19.5457 5.86073C19.4055 5.73605 19.1984 5.77869 19.049 5.8126C18.8373 5.86066 15.4641 8.09016 8.92971 12.5011C7.97226 13.1585 7.10504 13.4789 6.32804 13.4621C5.47145 13.4436 3.82373 12.9778 2.59882 12.5796C1.09642 12.0912 -0.0976659 11.833 0.00631174 11.0036C0.0604697 10.5716 0.655383 10.1298 1.79105 9.67817Z" fill="white"/>
</svg>
