<svg width="26" height="22" viewBox="0 0 26 22" fill="none" xmlns="http://www.w3.org/2000/svg">
<path fill-rule="evenodd" clip-rule="evenodd" d="M2.61768 9.39521C8.93439 6.64312 13.1465 4.82877 15.2541 3.95217C21.2716 1.44929 22.5219 1.01451 23.3369 1.00015C23.5162 0.996995 23.917 1.04142 24.1766 1.25207C24.3958 1.42995 24.4561 1.67023 24.485 1.83888C24.5138 2.00752 24.5498 2.3917 24.5212 2.69188C24.1951 6.11813 22.7841 14.4327 22.0663 18.2702C21.7625 19.894 21.1645 20.4384 20.5855 20.4917C19.3272 20.6075 18.3716 19.6601 17.1529 18.8612C15.2458 17.6111 14.1684 16.8329 12.3173 15.613C10.178 14.2032 11.5648 13.4284 12.784 12.1621C13.1031 11.8307 18.6472 6.78785 18.7545 6.33039C18.7679 6.27317 18.7804 6.05991 18.6537 5.9473C18.527 5.83469 18.34 5.87319 18.2051 5.90382C18.0138 5.94723 14.9672 7.96092 9.06531 11.9449C8.20055 12.5387 7.41727 12.828 6.71548 12.8128C5.94182 12.7961 4.45359 12.3754 3.34725 12.0158C1.99028 11.5747 0.911788 11.3415 1.0057 10.5923C1.05462 10.2022 1.59194 9.80311 2.61768 9.39521Z" stroke="white" stroke-width="1.0945"/>
</svg>
