<svg width="24" height="24" viewBox="0 0 24 24" fill="none" xmlns="http://www.w3.org/2000/svg">
<g id="Twitter_black">
<g id="Twitter">
<path id="Combined-Shape-path" d="M12.7689 9.4582L12.8036 10.0205L12.2256 9.95164C10.1215 9.68771 8.28329 8.79264 6.72257 7.28938L5.95955 6.54349L5.76302 7.0943C5.34683 8.32215 5.61273 9.61886 6.47979 10.491C6.94223 10.9729 6.83818 11.0418 6.04048 10.7549C5.76302 10.6631 5.52024 10.5943 5.49712 10.6287C5.41619 10.709 5.69365 11.7533 5.91331 12.1664C6.21389 12.7401 6.82662 13.3024 7.49715 13.6352L8.06363 13.8991L7.3931 13.9106C6.74569 13.9106 6.72257 13.9221 6.79194 14.1631C7.02315 14.9089 7.93646 15.7007 8.95382 16.045L9.6706 16.286L9.04631 16.6532C8.12144 17.181 7.03472 17.4794 5.94799 17.5023C5.42775 17.5138 5 17.5597 5 17.5941C5 17.7089 6.41043 18.3515 7.23125 18.604C9.69372 19.3499 12.6186 19.0286 14.8152 17.7548C16.3759 16.8483 17.9366 15.0466 18.665 13.3024C19.058 12.3729 19.4511 10.6746 19.4511 9.85984C19.4511 9.33198 19.4858 9.26312 20.1332 8.63199C20.5147 8.26478 20.8731 7.86315 20.9425 7.74839C21.0581 7.53036 21.0465 7.53036 20.4569 7.72544C19.4742 8.0697 19.3355 8.0238 19.8211 7.50741C20.1794 7.14021 20.6072 6.47464 20.6072 6.27956C20.6072 6.24514 20.4338 6.30251 20.2372 6.40579C20.0291 6.52054 19.5667 6.69267 19.2199 6.79595L18.5956 6.99103L18.0291 6.61234C17.717 6.40579 17.2777 6.17629 17.0464 6.10743C16.4568 5.94678 15.5551 5.96973 15.0233 6.15334C13.5782 6.66972 12.6649 8.00085 12.7689 9.4582Z" fill="white"/>
</g>
</g>
</svg>
