<svg width="25" height="25" viewBox="0 0 25 25" fill="none" xmlns="http://www.w3.org/2000/svg">
<g clip-path="url(#clip0_7383_730)">
<path d="M18.1621 13.9963C18.1146 13.9736 16.3389 13.0991 16.0233 12.9856C15.8945 12.9393 15.7565 12.8942 15.6097 12.8942C15.37 12.8942 15.1685 13.0137 15.0116 13.2484C14.8342 13.512 14.2973 14.1397 14.1313 14.3272C14.1097 14.352 14.0801 14.3816 14.0624 14.3816C14.0465 14.3816 13.7717 14.2684 13.6885 14.2323C11.7836 13.4048 10.3377 11.415 10.1394 11.0794C10.1111 11.0312 10.1099 11.0093 10.1097 11.0093C10.1166 10.9837 10.1807 10.9195 10.2138 10.8864C10.3105 10.7907 10.4153 10.6645 10.5166 10.5425C10.5647 10.4847 10.6127 10.4268 10.6599 10.3722C10.807 10.2011 10.8725 10.0682 10.9484 9.91435L10.9882 9.8344C11.1736 9.4661 11.0153 9.15531 10.9641 9.05495C10.9221 8.97096 10.1723 7.16136 10.0926 6.97125C9.9009 6.51248 9.6476 6.29887 9.29559 6.29887C9.26293 6.29887 9.29559 6.29887 9.15862 6.30465C8.99183 6.31169 8.08355 6.43126 7.68197 6.68441C7.2561 6.9529 6.53564 7.80874 6.53564 9.31387C6.53564 10.6685 7.39529 11.9475 7.76437 12.434C7.77355 12.4462 7.79039 12.4711 7.81483 12.5069C9.22829 14.5711 10.9904 16.1009 12.7766 16.8145C14.4963 17.5014 15.3106 17.5808 15.7736 17.5808H15.7737C15.9682 17.5808 16.1239 17.5656 16.2613 17.552L16.3485 17.5437C16.9425 17.4911 18.2481 16.8146 18.545 15.9893C18.7789 15.3394 18.8406 14.6292 18.685 14.3714C18.5784 14.1962 18.3947 14.108 18.1621 13.9963Z" fill="white"/>
<path d="M12.5335 0C5.93668 0 0.569733 5.32662 0.569733 11.8739C0.569733 13.9915 1.13645 16.0644 2.21001 17.8786L0.155175 23.94C0.116899 24.053 0.145369 24.1779 0.22896 24.263C0.289301 24.3246 0.371153 24.3578 0.454745 24.3578C0.486774 24.3578 0.51904 24.353 0.550516 24.343L6.8709 22.3346C8.60047 23.2587 10.5553 23.7464 12.5336 23.7464C19.1299 23.7465 24.4963 18.4205 24.4963 11.8739C24.4963 5.32662 19.1299 0 12.5335 0ZM12.5335 21.2731C10.672 21.2731 8.86896 20.7356 7.31907 19.7185C7.26695 19.6843 7.20645 19.6667 7.14556 19.6667C7.11337 19.6667 7.08111 19.6716 7.04971 19.6816L3.88359 20.688L4.90567 17.6726C4.93872 17.5751 4.92219 17.4674 4.8613 17.3842C3.68105 15.7715 3.05716 13.8662 3.05716 11.8739C3.05716 6.6905 7.30824 2.47343 12.5335 2.47343C17.7581 2.47343 22.0087 6.6905 22.0087 11.8739C22.0087 17.0567 17.7582 21.2731 12.5335 21.2731Z" fill="white"/>
</g>
<defs>
<clipPath id="clip0_7383_730">
<rect width="24.3578" height="24.3578" fill="white" transform="translate(0.138184)"/>
</clipPath>
</defs>
</svg>
